<svg width="27" height="23" viewBox="0 0 27 23" fill="none" xmlns="http://www.w3.org/2000/svg">
<path d="M2.125 13.125H21.4L15.5 20.21C15.2412 20.5433 15.1221 20.9641 15.1677 21.3836C15.2134 21.8031 15.4202 22.1885 15.7446 22.4584C16.069 22.7283 16.4855 22.8616 16.9063 22.8302C17.3272 22.7987 17.7193 22.6051 18 22.29L26.125 12.54C26.1796 12.4623 26.2284 12.3808 26.271 12.296C26.271 12.215 26.352 12.166 26.385 12.085C26.4596 11.8989 26.4987 11.7005 26.5 11.5C26.499 11.2996 26.4603 11.1011 26.386 10.915C26.386 10.834 26.305 10.785 26.272 10.704C26.2294 10.6192 26.1806 10.5376 26.126 10.46L18 0.709985C17.7933 0.463155 17.5182 0.282967 17.2094 0.192096C16.9006 0.101224 16.5717 0.103727 16.2643 0.19929C15.9569 0.294853 15.6846 0.479207 15.4817 0.729155C15.2788 0.979103 15.1543 1.28348 15.124 1.60398C15.0901 2.0332 15.225 2.45871 15.5 2.78998L21.4 9.87498H2.125C1.69402 9.87498 1.2807 10.0462 0.975951 10.3509C0.671205 10.6557 0.5 11.069 0.5 11.5C0.5 11.931 0.671205 12.3443 0.975951 12.649C1.2807 12.9538 1.69402 13.125 2.125 13.125Z" fill="white"/>
</svg>
