<svg width="58" height="45" viewBox="0 0 58 45" fill="none" xmlns="http://www.w3.org/2000/svg">
<path d="M50.735 27.163H18.52C17.1809 27.1614 15.8971 26.6287 14.9502 25.6818C14.0033 24.7349 13.4706 23.4511 13.469 22.112V16.837H16.836V22.112C16.8365 22.5584 17.0141 22.9865 17.3298 23.3022C17.6455 23.6179 18.0735 23.7955 18.52 23.796H22.252C22.0599 23.2553 21.9619 22.6858 21.962 22.112V16.837H25.33V22.112C25.3305 22.5584 25.5081 22.9865 25.8238 23.3022C26.1395 23.6179 26.5675 23.7955 27.014 23.796H30.746C30.5539 23.2553 30.4559 22.6858 30.456 22.112V16.837H33.823V22.112C33.8235 22.5584 34.0011 22.9865 34.3168 23.3022C34.6325 23.6179 35.0605 23.7955 35.507 23.796H39.239C39.0469 23.2553 38.9489 22.6858 38.949 22.112V16.837H42.316V22.112C42.3165 22.5584 42.4941 22.9865 42.8098 23.3022C43.1255 23.6179 43.5535 23.7955 44 23.796H50.735V13.469H6.735V16.949H3.367V10.102H0V33.902H3.367V27.055H6.735V37.269H23.684V44.002H50.735V27.163Z" fill="#EB0028"/>
<path d="M54.1016 30.531H57.4686V40.631H54.1016V30.531Z" fill="#EB0028"/>
<path d="M50.7344 8.418C50.7328 7.07888 50.2001 5.79506 49.2532 4.84816C48.3063 3.90126 47.0225 3.36859 45.6834 3.367H43.8834V0H40.5204V3.367H37.1524V0H33.7854V3.367H30.4184V0H27.0504V3.367H23.6834V0H20.3164V3.367H16.9484V0H13.5814V3.367H11.7814C10.4429 3.36965 9.16015 3.90278 8.21412 4.84957C7.26808 5.79636 6.73596 7.07957 6.73438 8.418V10.1H50.7344V8.418Z" fill="#EB0028"/>
</svg>
