<svg width="26" height="22" viewBox="0 0 26 22" fill="none" xmlns="http://www.w3.org/2000/svg">
<path d="M1.41156e-06 1.73501V17.77C1.41156e-06 18.1458 0.149292 18.5062 0.415031 18.772C0.68077 19.0377 1.04119 19.187 1.417 19.187H17.188V16.374C16.6601 15.763 16.3188 15.0131 16.2048 14.2137C16.0907 13.4143 16.2087 12.5989 16.5447 11.8646C16.8807 11.1304 17.4205 10.508 18.1 10.0717C18.7795 9.63537 19.57 9.40341 20.3775 9.40341C21.185 9.40341 21.9755 9.63537 22.655 10.0717C23.3345 10.508 23.8743 11.1304 24.2103 11.8646C24.5463 12.5989 24.6643 13.4143 24.5503 14.2137C24.4362 15.0131 24.0949 15.763 23.567 16.374V19.187H24.394C24.7698 19.187 25.1302 19.0377 25.396 18.772C25.6617 18.5062 25.811 18.1458 25.811 17.77V6.89801H20.931C20.4801 6.89801 20.0477 6.7189 19.7289 6.40009C19.4101 6.08128 19.231 5.64888 19.231 5.19801V0.31601H1.417C1.23075 0.316009 1.04633 0.352729 0.874277 0.424065C0.702228 0.495401 0.54593 0.59995 0.414323 0.731743C0.282717 0.863535 0.178383 1.01998 0.10729 1.19213C0.0361963 1.36428 -0.00026147 1.54876 1.41156e-06 1.73501ZM3.146 4.76501H17.3V6.32401H3.146V4.76501ZM3.146 10.34H15.146V11.19H3.146V10.34ZM3.146 13.004H10.222V13.854H3.146V13.004Z" fill="#EB0028"/>
<path d="M20.0801 0.451019V5.19702C20.0801 5.42246 20.1696 5.63865 20.329 5.79806C20.4884 5.95746 20.7046 6.04702 20.9301 6.04702H25.8101L20.0811 0.317017L20.0801 0.451019Z" fill="#EB0028"/>
<path d="M22.7161 19.187V17.126C22.0236 17.5887 21.2094 17.8357 20.3766 17.8357C19.5437 17.8357 18.7296 17.5887 18.0371 17.126V21.142L20.3761 20.21L22.7151 21.142V19.187H22.7161Z" fill="#EB0028"/>
<path d="M23.1427 15.536C23.6356 14.8261 23.8365 13.9537 23.7039 13.0997C23.5712 12.2456 23.1151 11.4754 22.43 10.9484C21.7449 10.4215 20.8834 10.1782 20.0239 10.2691C19.1644 10.3599 18.3728 10.7779 17.8131 11.4364C17.2533 12.095 16.9683 12.9436 17.0171 13.8065C17.0659 14.6694 17.4448 15.4805 18.0752 16.0717C18.7056 16.6629 19.5393 16.989 20.4036 16.9823C21.2678 16.9757 22.0964 16.6369 22.7177 16.036C22.8752 15.8835 23.0175 15.716 23.1427 15.536Z" fill="#EB0028"/>
</svg>
