<svg width="101" height="115" viewBox="0 0 101 115" fill="none" xmlns="http://www.w3.org/2000/svg">
<path d="M49.5669 115C73.3327 115 92.5987 112.761 92.5987 110C92.5987 107.239 73.3327 105 49.5669 105C25.8011 105 6.53516 107.239 6.53516 110C6.53516 112.761 25.8011 115 49.5669 115Z" fill="url(#paint0_radial_1794_7382)"/>
<path d="M100.083 50.1011C100.083 59.9901 97.1508 69.6571 91.6568 77.8796C86.1628 86.102 78.3539 92.5106 69.2177 96.295C60.0814 100.079 50.0282 101.07 40.3292 99.1403C30.6302 97.2111 21.7211 92.449 14.7286 85.4564C7.73598 78.4638 2.97398 69.5546 1.04474 59.8556C-0.884511 50.1565 0.105648 40.1032 3.89 30.9669C7.67436 21.8306 14.0829 14.0217 22.3053 8.52759C30.5277 3.03352 40.1946 0.101074 50.0836 0.101074C63.3444 0.101074 76.062 5.36892 85.4387 14.7457C94.8155 24.1225 100.083 36.8402 100.083 50.1011Z" fill="#5E687E"/>
<path d="M100.083 50.101C100.086 45.958 99.574 41.8306 98.5601 37.8135L80.64 19.8932L54.7942 27.2012L11.0098 81.2893L18.8947 89.1743C26.2516 95.0462 35.1167 98.722 44.47 99.779C53.8234 100.836 63.2852 99.2312 71.767 95.1493C80.2488 91.0674 87.4061 84.674 92.4155 76.7048C97.425 68.7355 100.083 59.514 100.084 50.101H100.083Z" fill="#474F62"/>
<path d="M3.53516 68.3905C5.36572 73.04 7.88386 77.3884 11.0054 81.2903L23.8513 68.4443L10.3329 61.5955L3.53516 68.3905Z" fill="#414952"/>
<path d="M41.3848 30.5389L47.9487 37.1029L51.7047 33.346C53.5023 31.5485 55.6639 30.1567 58.0441 29.264C60.4243 28.3713 62.968 27.9985 65.5043 28.1707L80.0097 29.1549L80.6377 19.8933L66.1332 18.9091C62.2748 18.6469 58.405 19.2139 54.7841 20.5721C51.1631 21.9302 47.875 24.048 45.1408 26.7829L41.3848 30.5389Z" fill="white"/>
<path d="M66.1341 18.909C60.473 18.5252 54.8342 19.9289 50.0137 22.922V35.0398L51.7057 33.3469C53.5033 31.5494 55.6648 30.1576 58.045 29.2649C60.4252 28.3722 62.9689 27.9994 65.5052 28.1716L80.0107 29.1558L80.6387 19.8933L66.1341 18.909Z" fill="#DCE1EB"/>
<path d="M43.9467 27.9814L10.3301 61.5955L33.4282 84.6938L57.9021 60.2207C60.3252 57.7972 61.6865 54.5105 61.6865 51.0834C61.6865 47.6563 60.3252 44.3696 57.9021 41.9461L43.9467 27.9814ZM46.4792 48.8626C46.9316 48.4017 47.471 48.035 48.066 47.7836C48.661 47.5323 49.2999 47.4014 49.9458 47.3984C50.5917 47.3954 51.2319 47.5204 51.8292 47.7662C52.4265 48.012 52.9692 48.3737 53.4259 48.8305C53.8827 49.2872 54.2444 49.8299 54.4902 50.4272C54.736 51.0246 54.861 51.6647 54.858 52.3106C54.855 52.9565 54.7241 53.5954 54.4727 54.1905C54.2214 54.7855 53.8547 55.3248 53.3938 55.7773L41.4579 67.7096C41.0054 68.1705 40.466 68.5372 39.871 68.7886C39.276 69.0399 38.6371 69.1708 37.9912 69.1738C37.3453 69.1768 36.7052 69.0518 36.1078 68.806C35.5105 68.5602 34.9678 68.1985 34.5111 67.7417C34.0543 67.285 33.6926 66.7423 33.4468 66.145C33.201 65.5477 33.076 64.9075 33.079 64.2616C33.082 63.6157 33.2129 62.9768 33.4643 62.3818C33.7156 61.7867 34.0823 61.2474 34.5433 60.7949L46.4792 48.8626Z" fill="#CDD2E1"/>
<path d="M57.9025 41.9397L50.0176 34.0547V47.435C50.9783 47.45 51.9133 47.7478 52.7058 48.2912C53.4983 48.8345 54.113 49.5994 54.4733 50.4901C54.8336 51.3809 54.9233 52.3581 54.7314 53.2996C54.5395 54.2411 54.0744 55.1051 53.3942 55.7838L50.0176 59.1604V68.1113L57.9025 60.2263C59.1041 59.0261 60.0574 57.6008 60.7078 56.0319C61.3581 54.463 61.6929 52.7813 61.6929 51.083C61.6929 49.3846 61.3581 47.7029 60.7078 46.134C60.0574 44.5652 59.1041 43.1399 57.9025 41.9397Z" fill="#BEC3D2"/>
<path d="M72.3457 52.9211C72.3457 55.2407 73.2671 57.4652 74.9073 59.1053C76.5474 60.7455 78.7719 61.6669 81.0914 61.6669C83.411 61.6669 85.6355 60.7455 87.2757 59.1053C88.9158 57.4652 89.8372 55.2407 89.8372 52.9211C89.8372 48.0909 81.0914 34.961 81.0914 34.961C81.0914 34.961 72.3457 48.0909 72.3457 52.9211Z" fill="#FD9407"/>
<defs>
<radialGradient id="paint0_radial_1794_7382" cx="0" cy="0" r="1" gradientUnits="userSpaceOnUse" gradientTransform="translate(49.5669 110) rotate(90) scale(5 43.0317)">
<stop stop-color="#9A9A9A"/>
<stop offset="1" stop-color="#9A9A9A" stop-opacity="0"/>
</radialGradient>
</defs>
</svg>
