<svg width="25" height="23" viewBox="0 0 25 23" fill="none" xmlns="http://www.w3.org/2000/svg">
<path fill-rule="evenodd" clip-rule="evenodd" d="M14.0567 0.495023L15.5297 1.59502C15.9123 1.88929 16.3764 2.05832 16.8587 2.07902L18.6947 2.17902C19.2234 2.20346 19.7295 2.401 20.135 2.74124C20.5404 3.08148 20.8228 3.54555 20.9387 4.06202L21.3587 5.85302C21.4627 6.32439 21.7096 6.75219 22.0657 7.07802L23.4067 8.33702C23.796 8.69567 24.0566 9.17227 24.1486 9.69353C24.2406 10.2148 24.1587 10.7518 23.9157 11.222L23.0857 12.864C22.8623 13.292 22.7763 13.7784 22.8397 14.257L23.0577 16.083C23.1265 16.6079 23.0209 17.1409 22.7571 17.5998C22.4932 18.0588 22.0859 18.4183 21.5977 18.623L19.8977 19.347C19.4518 19.5314 19.0736 19.8488 18.8147 20.256L17.8077 21.795C17.5219 22.2404 17.0976 22.5796 16.6002 22.7603C16.1028 22.9409 15.5597 22.9532 15.0547 22.795L13.2977 22.265C12.8376 22.1195 12.3438 22.1195 11.8837 22.265L10.1227 22.797C9.61764 22.9552 9.07462 22.9429 8.5772 22.7623C8.07977 22.5816 7.6555 22.2424 7.36969 21.797L6.36269 20.258C6.10381 19.8508 5.72561 19.5334 5.27969 19.349L3.58869 18.625C3.10011 18.4213 2.69206 18.0626 2.42734 17.6042C2.16263 17.1457 2.05593 16.613 2.12369 16.088L2.34169 14.262C2.40606 13.783 2.32084 13.2958 2.09769 12.867L1.26769 11.225C1.02465 10.7548 0.942816 10.2178 1.03478 9.69653C1.12675 9.17527 1.38741 8.69867 1.77669 8.34002L3.11769 7.08102C3.47382 6.75519 3.72072 6.32739 3.82469 5.85602L4.24469 4.06502C4.36055 3.54855 4.64296 3.08448 5.04842 2.74424C5.45389 2.404 5.95995 2.20646 6.48869 2.18202L8.32469 2.08202C8.80694 2.06132 9.27106 1.89229 9.65369 1.59802L11.1267 0.498023C11.5472 0.176286 12.0617 0.00170303 12.5912 0.00116093C13.1206 0.000618843 13.6356 0.174148 14.0567 0.495023ZM11.6567 12.084L10.0567 10.484C9.95913 10.3814 9.84202 10.2993 9.71226 10.2427C9.5825 10.186 9.44271 10.1559 9.30113 10.1541C9.15955 10.1523 9.01904 10.1789 8.88788 10.2322C8.75673 10.2856 8.63758 10.3647 8.53746 10.4648C8.43734 10.5649 8.35827 10.6841 8.30492 10.8152C8.25156 10.9464 8.22499 11.0869 8.22679 11.2285C8.22858 11.37 8.25869 11.5098 8.31535 11.6396C8.37201 11.7694 8.45407 11.8865 8.55669 11.984L10.9067 14.334C11.1056 14.5329 11.3754 14.6445 11.6567 14.6445C11.938 14.6445 12.2077 14.5329 12.4067 14.334C13.8237 12.917 15.2237 11.485 16.6347 10.061C16.7404 9.96431 16.8253 9.84716 16.8844 9.71666C16.9435 9.58617 16.9755 9.44504 16.9785 9.30182C16.9815 9.1586 16.9553 9.01627 16.9017 8.88343C16.8481 8.7506 16.7681 8.63002 16.6665 8.529C16.565 8.42797 16.444 8.34861 16.3108 8.2957C16.1777 8.24279 16.0352 8.21744 15.892 8.22118C15.7488 8.22493 15.6079 8.25768 15.4777 8.31747C15.3475 8.37726 15.2308 8.46283 15.1347 8.56902L11.6567 12.084ZM12.5957 3.55402C10.7678 3.55326 8.99619 4.18639 7.5828 5.34551C6.16941 6.50463 5.20172 8.11801 4.84462 9.91069C4.48752 11.7034 4.76313 13.5644 5.62447 15.1766C6.48581 16.7889 7.87957 18.0525 9.56824 18.7523C11.2569 19.452 13.136 19.5445 14.8852 19.014C16.6344 18.4835 18.1455 17.3628 19.1611 15.843C20.1766 14.3231 20.6336 12.4981 20.4543 10.679C20.275 8.85996 19.4704 7.15935 18.1777 5.86702C17.445 5.13232 16.5743 4.54967 15.6156 4.15256C14.657 3.75544 13.6293 3.55169 12.5917 3.55302L12.5957 3.55402ZM17.6347 6.41402C16.4688 5.24797 14.9347 4.52224 13.2938 4.36049C11.6529 4.19875 10.0066 4.611 8.63552 5.52699C7.26445 6.44298 6.25341 7.80604 5.77468 9.38392C5.29595 10.9618 5.37915 12.6569 6.0101 14.1803C6.64105 15.7037 7.78071 16.9612 9.23489 17.7385C10.6891 18.5158 12.3678 18.7649 13.985 18.4432C15.6022 18.1215 17.0579 17.2491 18.1039 15.9744C19.15 14.6998 19.7217 13.1019 19.7217 11.453C19.7228 10.5165 19.5386 9.58912 19.1797 8.72413C18.8208 7.85914 18.2944 7.0737 17.6307 6.41302L17.6347 6.41402Z" fill="#EB0028"/>
</svg>
