<svg width="24" height="24" viewBox="0 0 24 24" fill="none" xmlns="http://www.w3.org/2000/svg">
<path d="M23.1847 12.173C23.1673 10.5287 22.7973 8.90715 22.0997 7.41801H1.08168C0.369657 8.90186 0 10.5267 0 12.1725C0 13.8184 0.369657 15.4432 1.08168 16.927H22.0997C22.7972 15.4382 23.1672 13.8171 23.1847 12.173ZM6.83768 14.89C6.83768 15.0701 6.76614 15.2428 6.6388 15.3701C6.51147 15.4975 6.33876 15.569 6.15868 15.569C5.9786 15.569 5.80589 15.4975 5.67855 15.3701C5.55122 15.2428 5.47968 15.0701 5.47968 14.89V9.45601C5.47968 9.27593 5.55122 9.10323 5.67855 8.97589C5.80589 8.84855 5.9786 8.77701 6.15868 8.77701C6.33876 8.77701 6.51147 8.84855 6.6388 8.97589C6.76614 9.10323 6.83768 9.27593 6.83768 9.45601V14.89ZM10.2577 15.569C9.98956 15.5695 9.72402 15.5167 9.47647 15.4137C9.22893 15.3107 9.00432 15.1595 8.81568 14.969C8.69622 14.8398 8.63151 14.6693 8.63514 14.4934C8.63877 14.3174 8.71047 14.1497 8.83516 14.0256C8.95986 13.9014 9.12783 13.8304 9.30378 13.8275C9.47974 13.8246 9.64996 13.89 9.77868 14.01C9.87698 14.0956 9.99722 14.152 10.1259 14.1729C10.2545 14.1939 10.3864 14.1785 10.5068 14.1285C10.6271 14.0785 10.7311 13.9959 10.8071 13.89C10.883 13.7841 10.9279 13.659 10.9367 13.529C10.9364 13.349 10.8648 13.1765 10.7375 13.0492C10.6102 12.9219 10.4377 12.8503 10.2577 12.85C9.92246 12.85 9.5924 12.7674 9.29677 12.6093C9.00113 12.4513 8.74904 12.2228 8.56283 11.944C8.37663 11.6653 8.26206 11.3449 8.22928 11.0113C8.1965 10.6777 8.24652 10.3411 8.37491 10.0315C8.5033 9.72182 8.70609 9.4486 8.96531 9.23605C9.22453 9.0235 9.53219 8.87818 9.861 8.81296C10.1898 8.74774 10.5296 8.76463 10.8504 8.86215C11.1711 8.95967 11.4628 9.13479 11.6997 9.37201C11.8191 9.50123 11.8839 9.67173 11.8802 9.84767C11.8766 10.0236 11.8049 10.1913 11.6802 10.3155C11.5555 10.4396 11.3875 10.5106 11.2116 10.5135C11.0356 10.5164 10.8654 10.451 10.7367 10.331C10.6384 10.2454 10.5181 10.189 10.3895 10.1681C10.2609 10.1472 10.1289 10.1626 10.0086 10.2126C9.88822 10.2626 9.78421 10.3452 9.70826 10.4511C9.63231 10.557 9.58743 10.682 9.57868 10.812C9.57894 10.992 9.65057 11.1646 9.77785 11.2919C9.90513 11.4191 10.0777 11.4907 10.2577 11.491C10.529 11.485 10.7989 11.5333 11.0513 11.6329C11.3038 11.7326 11.5338 11.8818 11.7279 12.0716C11.9219 12.2614 12.0761 12.488 12.1813 12.7382C12.2866 12.9884 12.3408 13.2571 12.3408 13.5285C12.3408 13.8 12.2866 14.0686 12.1813 14.3188C12.0761 14.569 11.9219 14.7957 11.7279 14.9855C11.5338 15.1753 11.3038 15.3244 11.0513 15.4241C10.7989 15.5238 10.529 15.572 10.2577 15.566V15.569ZM15.6917 15.569C15.1513 15.5685 14.6333 15.3536 14.2512 14.9715C13.8691 14.5894 13.6542 14.0714 13.6537 13.531V10.818C13.6655 10.2854 13.8853 9.77868 14.2661 9.4062C14.647 9.03373 15.1585 8.82515 15.6912 8.82515C16.2239 8.82515 16.7354 9.03373 17.1162 9.4062C17.497 9.77868 17.7169 10.2854 17.7287 10.818V13.535C17.7271 14.0745 17.5119 14.5914 17.1301 14.9726C16.7484 15.3538 16.2312 15.5682 15.6917 15.569Z" fill="#EB0028"/>
<path d="M8.92383 18.285C9.83883 22.006 11.0068 23.764 11.5908 23.764C12.1748 23.764 13.3428 22.006 14.2578 18.285H8.92383Z" fill="#EB0028"/>
<path d="M14.2578 6.05902C13.3428 2.33802 12.1738 0.580017 11.5908 0.580017C11.0078 0.580017 9.83883 2.33802 8.92383 6.05902H14.2578Z" fill="#EB0028"/>
<path d="M15.6907 10.135C15.5107 10.1353 15.3382 10.2069 15.2109 10.3342C15.0836 10.4615 15.012 10.634 15.0117 10.814V13.535C15.0117 13.7151 15.0832 13.8878 15.2106 14.0151C15.3379 14.1425 15.5106 14.214 15.6907 14.214C15.8708 14.214 16.0435 14.1425 16.1708 14.0151C16.2982 13.8878 16.3697 13.7151 16.3697 13.535V10.818C16.3701 10.7285 16.3528 10.6399 16.3189 10.5571C16.285 10.4743 16.235 10.399 16.172 10.3356C16.1089 10.2721 16.0339 10.2218 15.9513 10.1873C15.8687 10.1529 15.7802 10.1351 15.6907 10.135Z" fill="#EB0028"/>
<path d="M7.51836 18.285H1.81836C2.66043 19.6408 3.77276 20.8086 5.08599 21.7157C6.39923 22.6227 7.88523 23.2495 9.45136 23.557C8.54307 21.908 7.89126 20.1303 7.51836 18.285Z" fill="#EB0028"/>
<path d="M15.6674 6.06003H21.3674C20.5253 4.70425 19.4129 3.53646 18.0997 2.62943C16.7864 1.7224 15.3005 1.09558 13.7344 0.788025C14.6427 2.43702 15.2944 4.21474 15.6674 6.06003Z" fill="#EB0028"/>
<path d="M15.6663 18.285C15.2949 20.13 14.6448 21.9077 13.7383 23.557C15.3035 23.2489 16.7885 22.6218 18.1009 21.7148C19.4132 20.8078 20.5248 19.6403 21.3663 18.285H15.6663Z" fill="#EB0028"/>
<path d="M7.51845 6.06001C7.89008 4.21494 8.54054 2.43722 9.44745 0.78801C7.88133 1.0955 6.39532 1.72231 5.08208 2.62934C3.76885 3.53638 2.65652 4.7042 1.81445 6.06001H7.51845Z" fill="#EB0028"/>
</svg>
