<svg width="53" height="48" viewBox="0 0 53 48" fill="none" xmlns="http://www.w3.org/2000/svg">
<path d="M15.39 27.294C16.8241 27.2957 18.2568 27.2038 19.679 27.019V12.096C18.2568 11.9113 16.8241 11.8194 15.39 11.821C6.88995 11.821 0.00195323 14.946 0.00195323 18.8V20.312C0.000953234 24.169 6.89195 27.294 15.39 27.294Z" fill="#EB0028"/>
<path d="M15.389 35.089C16.8231 35.0905 18.2558 34.9987 19.678 34.814V30.44C18.2558 30.6251 16.8231 30.7173 15.389 30.716C7.971 30.716 1.779 28.335 0.324 25.166C0.114271 25.6113 0.00372508 26.0968 0 26.589L0 28.103C0 31.961 6.891 35.089 15.389 35.089Z" fill="#EB0028"/>
<path d="M19.679 38.569V38.229C18.2568 38.4141 16.8241 38.5063 15.39 38.505C7.97195 38.505 1.77995 36.124 0.324953 32.955C0.114721 33.4022 0.00449584 33.8899 0.00195312 34.384L0.00195313 35.897C0.00195313 39.752 6.89195 42.877 15.39 42.877C17.0176 42.8796 18.6431 42.7606 20.253 42.521C19.8767 41.7629 19.6803 40.9283 19.679 40.082V38.569Z" fill="#EB0028"/>
<path d="M37.5775 0C29.0775 0 22.1895 3.125 22.1895 6.979V8.493C22.1895 12.348 29.0795 15.472 37.5775 15.472C46.0755 15.472 52.9655 12.347 52.9655 8.493V6.979C52.9665 3.121 46.0765 0 37.5775 0Z" fill="#EB0028"/>
<path d="M37.5765 18.892C30.1585 18.892 23.9665 16.511 22.5115 13.342C22.3008 13.7894 22.1902 14.2774 22.1875 14.772V16.286C22.1875 20.141 29.0775 23.265 37.5755 23.265C46.0735 23.265 52.9635 20.14 52.9635 16.286V14.772C52.9608 14.2774 52.8502 13.7894 52.6395 13.342C51.1875 16.511 44.9955 18.892 37.5765 18.892Z" fill="#EB0028"/>
<path d="M37.5765 26.684C30.1585 26.684 23.9665 24.303 22.5115 21.134C22.3009 21.5811 22.1904 22.0688 22.1875 22.563V24.077C22.1875 27.932 29.0775 31.057 37.5755 31.057C46.0735 31.057 52.9635 27.932 52.9635 24.077V22.563C52.9608 22.0684 52.8502 21.5804 52.6395 21.133C51.1875 24.306 44.9955 26.684 37.5765 26.684Z" fill="#EB0028"/>
<path d="M37.5765 34.897C30.1585 34.897 23.9665 32.516 22.5115 29.347C22.3009 29.7941 22.1904 30.2818 22.1875 30.776V32.29C22.1875 36.145 29.0775 39.269 37.5755 39.269C46.0735 39.269 52.9635 36.144 52.9635 32.29V30.776C52.9606 30.2818 52.8501 29.7941 52.6395 29.347C51.1875 32.516 44.9955 34.897 37.5765 34.897Z" fill="#EB0028"/>
<path d="M37.5765 42.689C30.1585 42.689 23.9665 40.308 22.5115 37.139C22.3009 37.5862 22.1904 38.0738 22.1875 38.568V40.082C22.1875 43.937 29.0775 47.061 37.5755 47.061C46.0735 47.061 52.9635 43.936 52.9635 40.082V38.568C52.9606 38.0738 52.8501 37.5862 52.6395 37.139C51.1875 40.308 44.9955 42.689 37.5765 42.689Z" fill="#EB0028"/>
</svg>
