<svg width="24" height="24" viewBox="0 0 24 24" fill="none" xmlns="http://www.w3.org/2000/svg">
<path d="M13.251 11.729L23.3 0.0800171L7.281 11.729H10.193L0 23.38L16.018 11.729H13.251ZM6.99 13.186H2.767L6.407 10.565L17.328 2.55502L11.649 0.0800171L1.456 4.44902V8.81802C1.43691 11.683 2.19145 14.5001 3.64 16.972L6.99 13.186ZM16.309 10.274H20.386L16.891 12.895L6.553 20.466C8.02231 21.7942 9.76235 22.7877 11.653 23.378C14.6623 22.3236 17.2646 20.351 19.0929 17.7385C20.9212 15.126 21.8831 12.0055 21.843 8.81702V4.44902L21.552 4.30302L16.309 10.274Z" fill="#EB0028"/>
</svg>
