<svg width="28" height="27" viewBox="0 0 28 27" fill="none" xmlns="http://www.w3.org/2000/svg">
<path d="M15.9955 11.864C16.1758 11.968 16.3899 11.9962 16.5909 11.9424C16.792 11.8886 16.9634 11.7572 17.0675 11.577L18.1135 9.76502C18.1652 9.67581 18.1987 9.57729 18.2122 9.47511C18.2258 9.37292 18.219 9.26907 18.1923 9.1695C18.1657 9.06993 18.1196 8.97659 18.0569 8.89483C17.9941 8.81307 17.9158 8.74449 17.8265 8.69302L17.1145 8.28002C17.2662 7.52623 17.2662 6.7498 17.1145 5.99602L17.8255 5.58502C17.9148 5.53354 17.9931 5.46496 18.0559 5.3832C18.1186 5.30144 18.1647 5.2081 18.1913 5.10853C18.218 5.00896 18.2248 4.90511 18.2112 4.80293C18.1977 4.70074 18.1642 4.60223 18.1125 4.51302L17.0675 2.70402C17.0161 2.61471 16.9475 2.53644 16.8657 2.47367C16.784 2.4109 16.6906 2.36487 16.591 2.33821C16.4915 2.31156 16.3876 2.30479 16.2854 2.31832C16.1833 2.33184 16.0847 2.36538 15.9955 2.41702L15.2845 2.82802C14.7092 2.31553 14.036 1.925 13.3055 1.68002V0.865017C13.3055 0.656995 13.223 0.457479 13.076 0.310292C12.929 0.163104 12.7295 0.0802821 12.5215 0.0800171L10.4295 0.0800171C10.2213 0.0800171 10.0217 0.162722 9.87445 0.309938C9.72723 0.457154 9.64453 0.656822 9.64453 0.865017V1.68002C8.91482 1.92363 8.24198 2.31244 7.66653 2.82302L6.95553 2.41702C6.86632 2.36538 6.7678 2.33184 6.66562 2.31832C6.56343 2.30479 6.45958 2.31156 6.36001 2.33821C6.26044 2.36487 6.16711 2.4109 6.08535 2.47367C6.00359 2.53644 5.935 2.61471 5.88353 2.70402L4.83753 4.51602C4.73351 4.69625 4.70531 4.91041 4.75913 5.11143C4.81295 5.31244 4.94438 5.48387 5.12453 5.58802L5.83553 5.99902C5.68383 6.75279 5.68383 7.52924 5.83553 8.28302L5.12453 8.69402C4.94438 8.79817 4.81295 8.96959 4.75913 9.17061C4.70531 9.37162 4.73351 9.58578 4.83753 9.76602L5.88353 11.58C5.935 11.6693 6.00359 11.7476 6.08535 11.8104C6.16711 11.8731 6.26044 11.9192 6.36001 11.9458C6.45958 11.9725 6.56343 11.9792 6.66562 11.9657C6.7678 11.9522 6.86632 11.9187 6.95553 11.867L7.66653 11.456C8.24188 11.9667 8.91475 12.3556 9.64453 12.599V13.42C9.64453 13.6282 9.72723 13.8279 9.87445 13.9751C10.0217 14.1223 10.2213 14.205 10.4295 14.205H12.5215C12.7297 14.205 12.9294 14.1223 13.0766 13.9751C13.2238 13.8279 13.3065 13.6282 13.3065 13.42V12.6C14.0362 12.3564 14.7091 11.9676 15.2845 11.457L15.9955 11.864ZM11.4755 9.23302C11.0618 9.23302 10.6573 9.11032 10.3133 8.88045C9.96925 8.65058 9.70111 8.32385 9.54278 7.94159C9.38444 7.55933 9.34301 7.1387 9.42373 6.73289C9.50445 6.32708 9.7037 5.95432 9.99627 5.66175C10.2888 5.36918 10.6616 5.16993 11.0674 5.08921C11.4732 5.00849 11.8938 5.04992 12.2761 5.20826C12.6584 5.3666 12.9851 5.63474 13.215 5.97876C13.4448 6.32279 13.5675 6.72726 13.5675 7.14102C13.5675 7.69585 13.3471 8.22796 12.9548 8.62028C12.5625 9.01261 12.0304 9.23302 11.4755 9.23302Z" fill="#EB0028"/>
<path d="M27.0355 21.351L26.3245 20.94C26.4761 20.1862 26.4761 19.4098 26.3245 18.656L27.0355 18.245C27.1248 18.1936 27.2031 18.125 27.2659 18.0432C27.3286 17.9615 27.3747 17.8681 27.4013 17.7685C27.428 17.669 27.4347 17.5651 27.4212 17.4629C27.4077 17.3608 27.3742 17.2622 27.3225 17.173L26.2765 15.361C26.1724 15.1809 26.0009 15.0494 25.7999 14.9956C25.5989 14.9418 25.3848 14.97 25.2045 15.074L24.4935 15.485C23.9182 14.9743 23.2453 14.5855 22.5155 14.342V13.522C22.5155 13.3138 22.4328 13.1142 22.2856 12.9669C22.1384 12.8197 21.9387 12.737 21.7305 12.737H19.6385C19.4303 12.737 19.2306 12.8197 19.0834 12.9669C18.9362 13.1142 18.8535 13.3138 18.8535 13.522V14.342C18.1237 14.5855 17.4509 14.9743 16.8755 15.485L16.1645 15.074C16.0753 15.0224 15.9768 14.9888 15.8746 14.9753C15.7724 14.9618 15.6686 14.9686 15.569 14.9952C15.4694 15.0219 15.3761 15.0679 15.2943 15.1307C15.2126 15.1934 15.144 15.2717 15.0925 15.361L14.0465 17.173C13.9425 17.3533 13.9143 17.5674 13.9681 17.7684C14.0219 17.9694 14.1534 18.1409 14.3335 18.245L15.0445 18.656C14.8928 19.4098 14.8928 20.1863 15.0445 20.94L14.3335 21.351C14.1534 21.4552 14.0219 21.6266 13.9681 21.8276C13.9143 22.0286 13.9425 22.2428 14.0465 22.423L15.0905 24.237C15.142 24.3263 15.2106 24.4046 15.2923 24.4674C15.3741 24.5301 15.4674 24.5762 15.567 24.6028C15.6666 24.6295 15.7704 24.6362 15.8726 24.6227C15.9748 24.6092 16.0733 24.5757 16.1625 24.524L16.8735 24.113C17.4489 24.6238 18.1217 25.0126 18.8515 25.256V26.076C18.8515 26.2842 18.9342 26.4839 19.0814 26.6311C19.2287 26.7783 19.4283 26.861 19.6365 26.861H21.7285C21.9367 26.861 22.1364 26.7783 22.2836 26.6311C22.4308 26.4839 22.5135 26.2842 22.5135 26.076V25.256C23.2432 25.0124 23.9161 24.6236 24.4915 24.113L25.2025 24.524C25.3827 24.6281 25.5969 24.6562 25.7979 24.6024C25.999 24.5486 26.1704 24.4172 26.2745 24.237L27.3205 22.425C27.3722 22.3358 27.4057 22.2373 27.4192 22.1351C27.4327 22.0329 27.426 21.9291 27.3993 21.8295C27.3727 21.7299 27.3266 21.6366 27.2639 21.5548C27.2011 21.4731 27.1228 21.4045 27.0335 21.353L27.0355 21.351ZM20.6845 21.89C20.2708 21.89 19.8663 21.7673 19.5223 21.5375C19.1782 21.3076 18.9101 20.9809 18.7518 20.5986C18.5934 20.2163 18.552 19.7957 18.6327 19.3899C18.7134 18.9841 18.9127 18.6113 19.2053 18.3188C19.4978 18.0262 19.8706 17.827 20.2764 17.7462C20.6822 17.6655 21.1028 17.7069 21.4851 17.8653C21.8674 18.0236 22.1941 18.2917 22.4239 18.6358C22.6538 18.9798 22.7765 19.3843 22.7765 19.798C22.7765 20.3527 22.5563 20.8846 22.1641 21.2769C21.772 21.6692 21.2392 21.8898 20.6845 21.89Z" fill="#EB0028"/>
<path d="M12.218 18.742L11.172 16.929C11.1205 16.8397 11.052 16.7614 10.9702 16.6987C10.8884 16.6359 10.7951 16.5899 10.6955 16.5632C10.596 16.5365 10.4921 16.5298 10.3899 16.5433C10.2877 16.5568 10.1892 16.5904 10.1 16.642L9.57001 16.948C9.18976 16.646 8.76726 16.4014 8.31601 16.222V15.612C8.31548 15.4043 8.23268 15.2053 8.08573 15.0586C7.93879 14.9118 7.73968 14.8293 7.53201 14.829H5.44001C5.23181 14.829 5.03214 14.9117 4.88493 15.0589C4.73771 15.2061 4.65501 15.4058 4.65501 15.614V16.224C4.20376 16.4034 3.78126 16.648 3.40101 16.95L2.87101 16.644C2.7818 16.5924 2.68328 16.5588 2.5811 16.5453C2.47891 16.5318 2.37506 16.5386 2.27549 16.5652C2.17592 16.5919 2.08259 16.6379 2.00082 16.7007C1.91906 16.7634 1.85048 16.8417 1.79901 16.931L0.750008 18.742C0.698369 18.8312 0.664829 18.9297 0.651307 19.0319C0.637785 19.1341 0.644546 19.238 0.671203 19.3375C0.69786 19.4371 0.74389 19.5304 0.806659 19.6122C0.869429 19.6939 0.947704 19.7625 1.03701 19.814L1.56601 20.12C1.49504 20.6001 1.49504 21.088 1.56601 21.568L1.03701 21.874C0.947837 21.9255 0.869679 21.994 0.806996 22.0757C0.744314 22.1574 0.698334 22.2506 0.671684 22.3501C0.645033 22.4495 0.638233 22.5533 0.651672 22.6553C0.665111 22.7574 0.698525 22.8558 0.750008 22.945L1.79601 24.757C1.90016 24.9372 2.07158 25.0686 2.2726 25.1224C2.47361 25.1762 2.68778 25.148 2.86801 25.044L3.39801 24.738C3.77825 25.04 4.20075 25.2847 4.65201 25.464V26.074C4.65201 26.2822 4.73471 26.4819 4.88193 26.6291C5.02914 26.7763 5.22881 26.859 5.43701 26.859H7.53201C7.7402 26.859 7.93987 26.7763 8.08709 26.6291C8.2343 26.4819 8.31701 26.2822 8.31701 26.074V25.464C8.76827 25.2847 9.19077 25.04 9.57101 24.738L10.101 25.044C10.1902 25.0956 10.2887 25.1292 10.3909 25.1427C10.4931 25.1562 10.597 25.1495 10.6965 25.1228C10.7961 25.0961 10.8894 25.0501 10.9712 24.9874C11.053 24.9246 11.1215 24.8463 11.173 24.757L12.219 22.945C12.2706 22.8558 12.3042 22.7573 12.3177 22.6551C12.3312 22.5529 12.3245 22.4491 12.2978 22.3495C12.2712 22.2499 12.2251 22.1566 12.1624 22.0748C12.0996 21.9931 12.0213 21.9245 11.932 21.873L11.403 21.567C11.474 21.087 11.474 20.5991 11.403 20.119L11.932 19.813C12.1117 19.7087 12.2427 19.5374 12.2964 19.3366C12.35 19.1358 12.3218 18.922 12.218 18.742ZM6.48601 22.413C6.17569 22.413 5.87234 22.321 5.61432 22.1486C5.3563 21.9762 5.15519 21.7311 5.03644 21.4444C4.91769 21.1577 4.88662 20.8423 4.94716 20.5379C5.0077 20.2335 5.15713 19.954 5.37656 19.7346C5.59599 19.5151 5.87556 19.3657 6.17991 19.3051C6.48427 19.2446 6.79974 19.2757 7.08644 19.3944C7.37314 19.5132 7.61818 19.7143 7.79058 19.9723C7.96299 20.2303 8.05501 20.5337 8.05501 20.844C8.05501 21.2601 7.8897 21.6592 7.59546 21.9535C7.30121 22.2477 6.90213 22.413 6.48601 22.413Z" fill="#EB0028"/>
</svg>
