<svg width="101" height="115" viewBox="0 0 101 115" fill="none" xmlns="http://www.w3.org/2000/svg">
<path d="M49.8364 115C73.6022 115 92.8682 112.761 92.8682 110C92.8682 107.239 73.6022 105 49.8364 105C26.0707 105 6.80469 107.239 6.80469 110C6.80469 112.761 26.0707 115 49.8364 115Z" fill="url(#paint0_radial_1794_7380)"/>
<path d="M100.351 50.1011C100.351 59.9901 97.4184 69.6571 91.9244 77.8796C86.4304 86.102 78.6215 92.5106 69.4852 96.295C60.349 100.079 50.2957 101.07 40.5968 99.1403C30.8978 97.2111 21.9887 92.449 14.9961 85.4564C8.00356 78.4638 3.24156 69.5546 1.31231 59.8556C-0.616933 50.1565 0.373227 40.1032 4.15758 30.9669C7.94193 21.8306 14.3505 14.0217 22.5729 8.52759C30.7953 3.03352 40.4622 0.101074 50.3512 0.101074C63.6119 0.101074 76.3295 5.36892 85.7063 14.7457C95.083 24.1225 100.351 36.8402 100.351 50.1011Z" fill="#5E687E"/>
<path d="M100.351 50.101C100.353 45.958 99.8415 41.8306 98.8277 37.8135L80.9076 19.8932L55.0618 27.2012L11.2773 81.2893L19.1623 89.1743C26.5192 95.0462 35.3842 98.722 44.7376 99.779C54.091 100.836 63.5528 99.2312 72.0346 95.1493C80.5164 91.0674 87.6736 84.674 92.6831 76.7048C97.6926 68.7355 100.351 59.514 100.352 50.101H100.351Z" fill="#474F62"/>
<path d="M3.80273 68.3905C5.63329 73.04 8.15144 77.3884 11.273 81.2903L24.1189 68.4443L10.6005 61.5955L3.80273 68.3905Z" fill="#414952"/>
<path d="M41.6523 30.5389L48.2163 37.1029L51.9723 33.346C53.7699 31.5485 55.9314 30.1567 58.3116 29.264C60.6919 28.3713 63.2356 27.9985 65.7718 28.1707L80.2773 29.1549L80.9053 19.8933L66.4008 18.9091C62.5424 18.6469 58.6726 19.2139 55.0517 20.5721C51.4307 21.9302 48.1426 24.048 45.4084 26.7829L41.6523 30.5389Z" fill="white"/>
<path d="M66.4017 18.909C60.7406 18.5252 55.1018 19.9289 50.2812 22.922V35.0398L51.9732 33.3469C53.7708 31.5494 55.9324 30.1576 58.3126 29.2649C60.6928 28.3722 63.2365 27.9994 65.7728 28.1716L80.2782 29.1558L80.9062 19.8933L66.4017 18.909Z" fill="#DCE1EB"/>
<path d="M44.2143 27.9814L10.5977 61.5955L33.6958 84.6938L58.1697 60.2207C60.5928 57.7972 61.954 54.5105 61.954 51.0834C61.954 47.6563 60.5928 44.3696 58.1697 41.9461L44.2143 27.9814ZM46.7467 48.8626C47.1992 48.4017 47.7385 48.035 48.3336 47.7836C48.9286 47.5323 49.5675 47.4014 50.2134 47.3984C50.8593 47.3954 51.4994 47.5204 52.0968 47.7662C52.6941 48.012 53.2368 48.3737 53.6935 48.8305C54.1502 49.2872 54.512 49.8299 54.7578 50.4272C55.0036 51.0246 55.1286 51.6647 55.1256 52.3106C55.1226 52.9565 54.9916 53.5954 54.7403 54.1905C54.489 54.7855 54.1223 55.3248 53.6613 55.7773L41.7254 67.7096C41.273 68.1705 40.7336 68.5372 40.1386 68.7886C39.5436 69.0399 38.9047 69.1708 38.2588 69.1738C37.6128 69.1768 36.9727 69.0518 36.3754 68.806C35.7781 68.5602 35.2354 68.1985 34.7787 67.7417C34.3219 67.285 33.9602 66.7423 33.7144 66.145C33.4686 65.5477 33.3436 64.9075 33.3466 64.2616C33.3496 63.6157 33.4805 62.9768 33.7318 62.3818C33.9832 61.7867 34.3499 61.2474 34.8108 60.7949L46.7467 48.8626Z" fill="#CDD2E1"/>
<path d="M58.1701 41.9397L50.2852 34.0547V47.435C51.2459 47.45 52.1809 47.7478 52.9734 48.2912C53.7658 48.8345 54.3806 49.5994 54.7409 50.4901C55.1011 51.3809 55.1909 52.3581 54.999 53.2996C54.8071 54.2411 54.3419 55.1051 53.6618 55.7838L50.2852 59.1604V68.1113L58.1701 60.2263C59.3717 59.0261 60.3249 57.6008 60.9753 56.0319C61.6257 54.463 61.9605 52.7813 61.9605 51.083C61.9605 49.3846 61.6257 47.7029 60.9753 46.134C60.3249 44.5652 59.3717 43.1399 58.1701 41.9397Z" fill="#BEC3D2"/>
<path d="M72.6133 52.9211C72.6133 55.2407 73.5347 57.4652 75.1748 59.1053C76.815 60.7455 79.0395 61.6669 81.359 61.6669C83.6785 61.6669 85.9031 60.7455 87.5432 59.1053C89.1834 57.4652 90.1048 55.2407 90.1048 52.9211C90.1048 48.0909 81.359 34.961 81.359 34.961C81.359 34.961 72.6133 48.0909 72.6133 52.9211Z" fill="#EB0028"/>
<defs>
<radialGradient id="paint0_radial_1794_7380" cx="0" cy="0" r="1" gradientUnits="userSpaceOnUse" gradientTransform="translate(49.8364 110) rotate(90) scale(5 43.0317)">
<stop stop-color="#9A9A9A"/>
<stop offset="1" stop-color="#9A9A9A" stop-opacity="0"/>
</radialGradient>
</defs>
</svg>
