<svg width="27" height="23" viewBox="0 0 27 23" fill="none" xmlns="http://www.w3.org/2000/svg">
<path d="M24.875 13.125H5.6L11.5 20.21C11.7588 20.5433 11.8779 20.9641 11.8323 21.3836C11.7866 21.8031 11.5798 22.1885 11.2554 22.4584C10.931 22.7283 10.5145 22.8616 10.0937 22.8302C9.67284 22.7987 9.28071 22.6051 9 22.29L0.875 12.54C0.820415 12.4623 0.771617 12.3808 0.729 12.296C0.729 12.215 0.648002 12.166 0.615002 12.085C0.540355 11.8989 0.501343 11.7005 0.5 11.5C0.501025 11.2996 0.539694 11.1011 0.613998 10.915C0.613998 10.834 0.695001 10.785 0.728001 10.704C0.770617 10.6192 0.819416 10.5376 0.874001 10.46L9 0.709985C9.20668 0.463155 9.48176 0.282967 9.7906 0.192096C10.0994 0.101224 10.4283 0.103727 10.7357 0.19929C11.0431 0.294853 11.3154 0.479207 11.5183 0.729155C11.7212 0.979103 11.8457 1.28348 11.876 1.60398C11.9099 2.0332 11.775 2.45871 11.5 2.78998L5.6 9.87498H24.875C25.306 9.87498 25.7193 10.0462 26.024 10.3509C26.3288 10.6557 26.5 11.069 26.5 11.5C26.5 11.931 26.3288 12.3443 26.024 12.649C25.7193 12.9538 25.306 13.125 24.875 13.125Z" fill="white"/>
</svg>
