<svg width="24" height="26" viewBox="0 0 24 26" fill="none" xmlns="http://www.w3.org/2000/svg">
<path d="M2.14101 0.0710144C1.57479 0.0762309 1.03325 0.303475 0.632858 0.703865C0.232468 1.10426 0.00522395 1.6458 7.47033e-06 2.21201V24.696C-0.000519077 24.837 0.0267946 24.9767 0.0803816 25.1071C0.133969 25.2375 0.212774 25.356 0.312278 25.4559C0.411782 25.5558 0.530026 25.635 0.660227 25.6891C0.790429 25.7432 0.930025 25.771 1.07101 25.771H13.919C14.2031 25.771 14.4755 25.6582 14.6763 25.4573C14.8772 25.2565 14.99 24.9841 14.99 24.7V19.878C14.99 19.7361 15.0464 19.6 15.1467 19.4997C15.247 19.3994 15.3831 19.343 15.525 19.343H16.06C16.2012 19.3409 16.3415 19.3671 16.4724 19.4201C16.6033 19.4732 16.7222 19.552 16.8221 19.6519C16.922 19.7518 17.0008 19.8707 17.0539 20.0016C17.1069 20.1325 17.1332 20.2728 17.131 20.414V21.485C17.131 22.3369 17.4694 23.1539 18.0718 23.7562C18.6741 24.3586 19.4911 24.697 20.343 24.697C21.1949 24.697 22.0119 24.3586 22.6142 23.7562C23.2166 23.1539 23.555 22.3369 23.555 21.485V7.56601C23.5549 7.06741 23.4389 6.57565 23.216 6.12962C22.9932 5.68358 22.6697 5.29549 22.271 4.99601L18.844 2.42601C18.6166 2.25575 18.3308 2.18279 18.0496 2.22321C17.7684 2.26362 17.5148 2.41409 17.3445 2.64151C17.1742 2.86894 17.1013 3.15469 17.1417 3.4359C17.1821 3.71711 17.3326 3.97075 17.56 4.14101L18.844 5.10301C18.9772 5.20268 19.0854 5.33203 19.1598 5.4808C19.2343 5.62957 19.273 5.79365 19.273 5.96001V8.63601C19.2771 9.11066 19.437 9.57081 19.7283 9.94558C20.0196 10.3203 20.426 10.589 20.885 10.71C21.0266 10.7386 21.1549 10.8128 21.2504 10.9211C21.3459 11.0294 21.4033 11.166 21.414 11.31V21.484C21.4184 21.6273 21.3939 21.7701 21.3421 21.9038C21.2903 22.0375 21.2121 22.1595 21.1123 22.2624C21.0125 22.3653 20.893 22.4472 20.7609 22.5031C20.6288 22.5589 20.4869 22.5877 20.3435 22.5877C20.2001 22.5877 20.0582 22.5589 19.9261 22.5031C19.794 22.4472 19.6746 22.3653 19.5747 22.2624C19.4749 22.1595 19.3967 22.0375 19.3449 21.9038C19.2931 21.7701 19.2686 21.6273 19.273 21.484V20.414C19.2688 19.5634 18.929 18.7489 18.3276 18.1474C17.7261 17.546 16.9116 17.2062 16.061 17.202H15.526C15.3841 17.202 15.248 17.1456 15.1477 17.0453C15.0474 16.945 14.991 16.8089 14.991 16.667V2.21201C14.9858 1.64546 14.7583 1.10362 14.3574 0.703169C13.9566 0.302723 13.4146 0.0757096 12.848 0.0710144L2.14101 0.0710144ZM2.67601 2.21201H12.312C12.3823 2.21188 12.4519 2.22563 12.5169 2.25247C12.5819 2.27931 12.6409 2.31871 12.6906 2.36842C12.7403 2.41812 12.7797 2.47715 12.8066 2.54212C12.8334 2.60709 12.8471 2.67672 12.847 2.74701V10.242C12.8471 10.3123 12.8334 10.3819 12.8066 10.4469C12.7797 10.5119 12.7403 10.5709 12.6906 10.6206C12.6409 10.6703 12.5819 10.7097 12.5169 10.7366C12.4519 10.7634 12.3823 10.7771 12.312 10.777H2.67701C2.60671 10.7771 2.53708 10.7634 2.47212 10.7366C2.40715 10.7097 2.34812 10.6703 2.29841 10.6206C2.24871 10.5709 2.2093 10.5119 2.18246 10.4469C2.15562 10.3819 2.14188 10.3123 2.14201 10.242V2.74801C2.14174 2.67764 2.15539 2.6079 2.18218 2.54282C2.20896 2.47773 2.24834 2.41858 2.29806 2.36877C2.34777 2.31896 2.40685 2.27947 2.47188 2.25257C2.53692 2.22566 2.60563 2.21188 2.67601 2.21201Z" fill="#EB0028"/>
</svg>
