<svg width="101" height="115" viewBox="0 0 101 115" fill="none" xmlns="http://www.w3.org/2000/svg">
<path d="M49.6997 115C73.4655 115 92.7315 112.761 92.7315 110C92.7315 107.239 73.4655 105 49.6997 105C25.9339 105 6.66797 107.239 6.66797 110C6.66797 112.761 25.9339 115 49.6997 115Z" fill="url(#paint0_radial_1794_7381)"/>
<path d="M100.218 50.1011C100.218 59.9901 97.2856 69.6571 91.7916 77.8796C86.2975 86.102 78.4887 92.5106 69.3524 96.295C60.2162 100.079 50.1629 101.07 40.464 99.1403C30.765 97.2111 21.8559 92.449 14.8633 85.4564C7.87075 78.4638 3.10875 69.5546 1.1795 59.8556C-0.749745 50.1565 0.240414 40.1032 4.02477 30.9669C7.80912 21.8306 14.2177 14.0217 22.4401 8.52759C30.6625 3.03352 40.3294 0.101074 50.2184 0.101074C63.4791 0.101074 76.1967 5.36892 85.5735 14.7457C94.9502 24.1225 100.218 36.8402 100.218 50.1011Z" fill="#5E687E"/>
<path d="M100.218 50.101C100.22 45.958 99.7087 41.8306 98.6949 37.8135L80.7748 19.8932L54.929 27.2012L11.1445 81.2893L19.0294 89.1743C26.3864 95.0462 35.2514 98.722 44.6048 99.779C53.9582 100.836 63.42 99.2312 71.9018 95.1493C80.3836 91.0674 87.5408 84.674 92.5503 76.7048C97.5598 68.7355 100.218 59.514 100.219 50.101H100.218Z" fill="#474F62"/>
<path d="M3.66992 68.3905C5.50048 73.04 8.01863 77.3884 11.1402 81.2903L23.9861 68.4443L10.4676 61.5955L3.66992 68.3905Z" fill="#414952"/>
<path d="M41.5195 30.5389L48.0835 37.1029L51.8395 33.346C53.6371 31.5485 55.7986 30.1567 58.1788 29.264C60.559 28.3713 63.1028 27.9985 65.639 28.1707L80.1445 29.1549L80.7725 19.8933L66.268 18.9091C62.4096 18.6469 58.5398 19.2139 54.9189 20.5721C51.2979 21.9302 48.0098 24.048 45.2755 26.7829L41.5195 30.5389Z" fill="white"/>
<path d="M66.2689 18.909C60.6077 18.5252 54.969 19.9289 50.1484 22.922V35.0398L51.8404 33.3469C53.638 31.5494 55.7996 30.1576 58.1798 29.2649C60.56 28.3722 63.1037 27.9994 65.64 28.1716L80.1454 29.1558L80.7734 19.8933L66.2689 18.909Z" fill="#DCE1EB"/>
<path d="M44.0815 27.9814L10.4648 61.5955L33.563 84.6938L58.0368 60.2207C60.46 57.7972 61.8212 54.5105 61.8212 51.0834C61.8212 47.6563 60.46 44.3696 58.0368 41.9461L44.0815 27.9814ZM46.6139 48.8626C47.0664 48.4017 47.6057 48.035 48.2008 47.7836C48.7958 47.5323 49.4347 47.4014 50.0806 47.3984C50.7265 47.3954 51.3666 47.5204 51.9639 47.7662C52.5613 48.012 53.104 48.3737 53.5607 48.8305C54.0174 49.2872 54.3791 49.8299 54.6249 50.4272C54.8707 51.0246 54.9958 51.6647 54.9928 52.3106C54.9898 52.9565 54.8588 53.5954 54.6075 54.1905C54.3562 54.7855 53.9895 55.3248 53.5285 55.7773L41.5926 67.7096C41.1401 68.1705 40.6008 68.5372 40.0058 68.7886C39.4108 69.0399 38.7719 69.1708 38.1259 69.1738C37.48 69.1768 36.8399 69.0518 36.2426 68.806C35.6453 68.5602 35.1026 68.1985 34.6458 67.7417C34.1891 67.285 33.8274 66.7423 33.5816 66.145C33.3358 65.5477 33.2108 64.9075 33.2138 64.2616C33.2168 63.6157 33.3477 62.9768 33.599 62.3818C33.8504 61.7867 34.2171 61.2474 34.678 60.7949L46.6139 48.8626Z" fill="#CDD2E1"/>
<path d="M58.0373 41.9397L50.1523 34.0547V47.435C51.1131 47.45 52.0481 47.7478 52.8406 48.2912C53.633 48.8345 54.2478 49.5994 54.6081 50.4901C54.9683 51.3809 55.0581 52.3581 54.8662 53.2996C54.6743 54.2411 54.2091 55.1051 53.5289 55.7838L50.1523 59.1604V68.1113L58.0373 60.2263C59.2389 59.0261 60.1921 57.6008 60.8425 56.0319C61.4929 54.463 61.8277 52.7813 61.8277 51.083C61.8277 49.3846 61.4929 47.7029 60.8425 46.134C60.1921 44.5652 59.2389 43.1399 58.0373 41.9397Z" fill="#BEC3D2"/>
<path d="M72.4805 52.9211C72.4805 55.2407 73.4019 57.4652 75.042 59.1053C76.6822 60.7455 78.9067 61.6669 81.2262 61.6669C83.5457 61.6669 85.7703 60.7455 87.4104 59.1053C89.0506 57.4652 89.972 55.2407 89.972 52.9211C89.972 48.0909 81.2262 34.961 81.2262 34.961C81.2262 34.961 72.4805 48.0909 72.4805 52.9211Z" fill="#56B268"/>
<defs>
<radialGradient id="paint0_radial_1794_7381" cx="0" cy="0" r="1" gradientUnits="userSpaceOnUse" gradientTransform="translate(49.6997 110) rotate(90) scale(5 43.0317)">
<stop stop-color="#9A9A9A"/>
<stop offset="1" stop-color="#9A9A9A" stop-opacity="0"/>
</radialGradient>
</defs>
</svg>
