<svg width="31" height="31" viewBox="0 0 31 31" fill="none" xmlns="http://www.w3.org/2000/svg">
<g clip-path="url(#clip0_1294_7043)">
<path d="M27.125 23.25V24.5417C27.125 25.9625 25.9625 27.125 24.5417 27.125H6.45833C5.77319 27.125 5.11611 26.8528 4.63164 26.3684C4.14717 25.8839 3.875 25.2268 3.875 24.5417V6.45833C3.875 5.77319 4.14717 5.11611 4.63164 4.63164C5.11611 4.14717 5.77319 3.875 6.45833 3.875H24.5417C25.9625 3.875 27.125 5.0375 27.125 6.45833V7.75H15.5C14.8149 7.75 14.1578 8.02217 13.6733 8.50664C13.1888 8.99111 12.9167 9.64819 12.9167 10.3333V20.6667C12.9167 21.3518 13.1888 22.0089 13.6733 22.4934C14.1578 22.9778 14.8149 23.25 15.5 23.25H27.125ZM15.5 20.6667H28.4167V10.3333H15.5V20.6667ZM20.6667 17.4375C19.5946 17.4375 18.7292 16.5721 18.7292 15.5C18.7292 14.4279 19.5946 13.5625 20.6667 13.5625C21.7387 13.5625 22.6042 14.4279 22.6042 15.5C22.6042 16.5721 21.7387 17.4375 20.6667 17.4375Z" fill="white"/>
</g>
<defs>
<clipPath id="clip0_1294_7043">
<rect width="31" height="31" fill="white"/>
</clipPath>
</defs>
</svg>
