<svg width="25" height="23" viewBox="0 0 25 23" fill="none" xmlns="http://www.w3.org/2000/svg">
<g clip-path="url(#clip0_1309_5796)">
<path d="M21.9972 9.85192C22.3726 9.85192 22.6928 9.98469 22.9585 10.2501C23.2239 10.5158 23.3566 10.8361 23.3566 11.2113C23.3566 11.5866 23.2239 11.907 22.9585 12.1724C22.6928 12.438 22.3726 12.5707 21.9972 12.5707H21.838L20.6165 19.6016C20.5598 19.9272 20.4042 20.1963 20.1493 20.4088C19.8942 20.6212 19.604 20.7273 19.2784 20.7273H5.68386C5.35826 20.7273 5.06789 20.6212 4.81292 20.4088C4.55811 20.1963 4.40228 19.9272 4.34559 19.6016L3.12424 12.5707H2.96487C2.58963 12.5707 2.26916 12.438 2.00378 12.1724C1.73824 11.907 1.60547 11.5866 1.60547 11.2113C1.60547 10.8361 1.73824 10.5158 2.00378 10.2501C2.26932 9.98453 2.58979 9.85192 2.96487 9.85192H21.9972ZM6.75642 18.3484C6.94044 18.3341 7.09451 18.2547 7.21847 18.1096C7.34227 17.9643 7.39721 17.7995 7.38311 17.6155L7.04326 13.1974C7.02917 13.0132 6.94957 12.8593 6.80431 12.7354C6.6592 12.6114 6.49456 12.5565 6.31054 12.5707C6.12652 12.5848 5.97245 12.6646 5.84849 12.8097C5.72453 12.9548 5.66976 13.1194 5.68386 13.3034L6.02371 17.7217C6.0378 17.8987 6.11051 18.0474 6.24135 18.1677C6.37236 18.2882 6.52643 18.3484 6.70341 18.3484H6.75642ZM11.1216 17.6687V13.2504C11.1216 13.0664 11.0544 12.9071 10.9198 12.7725C10.7853 12.638 10.6261 12.5707 10.4419 12.5707C10.2578 12.5707 10.0986 12.638 9.96403 12.7725C9.8295 12.9072 9.76223 13.0664 9.76223 13.2504V17.6687C9.76223 17.8527 9.8295 18.0122 9.96403 18.1466C10.0986 18.2811 10.2579 18.3484 10.4419 18.3484C10.626 18.3484 10.7853 18.2811 10.9198 18.1466C11.0544 18.0122 11.1216 17.8528 11.1216 17.6687ZM15.2 17.6687V13.2504C15.2 13.0664 15.1328 12.9071 14.9982 12.7725C14.8635 12.638 14.7043 12.5707 14.5203 12.5707C14.3363 12.5707 14.1768 12.638 14.0424 12.7725C13.9079 12.9072 13.8406 13.0664 13.8406 13.2504V17.6687C13.8406 17.8527 13.9079 18.0122 14.0424 18.1466C14.177 18.2809 14.3363 18.3484 14.5203 18.3484C14.7043 18.3484 14.8637 18.2811 14.9982 18.1466C15.1328 18.0122 15.2 17.8528 15.2 17.6687ZM18.9384 17.7217L19.2782 13.3034C19.2923 13.1194 19.2376 12.9548 19.1138 12.8097C18.99 12.6646 18.8359 12.5848 18.6517 12.5707C18.4675 12.5565 18.3029 12.6114 18.1578 12.7354C18.0127 12.8592 17.9329 13.0131 17.9188 13.1974L17.579 17.6155C17.5649 17.7995 17.6197 17.9643 17.7435 18.1096C17.8674 18.2547 18.0215 18.3341 18.2055 18.3484H18.2587C18.4357 18.3484 18.5896 18.2882 18.7208 18.1677C18.8516 18.0476 18.9241 17.8988 18.9384 17.7217ZM6.66096 4.79642L5.67328 9.17221H4.27143L5.34416 4.48844C5.47869 3.86543 5.79372 3.35742 6.28941 2.96439C6.78509 2.57153 7.35156 2.37502 7.98882 2.37502H9.7624C9.7624 2.191 9.82966 2.03164 9.96419 1.89711C10.0987 1.76258 10.2581 1.69531 10.4421 1.69531H14.5205C14.7045 1.69531 14.8639 1.76258 14.9984 1.89711C15.1329 2.03164 15.2002 2.19084 15.2002 2.37502H16.9738C17.611 2.37502 18.1775 2.57153 18.6732 2.96439C19.1687 3.35742 19.4839 3.86543 19.6183 4.48844L20.6908 9.17221H19.289L18.3011 4.79642C18.2233 4.48491 18.0623 4.22995 17.8179 4.03183C17.5737 3.83356 17.2923 3.73442 16.9736 3.73442H15.2C15.2 3.9186 15.1328 4.0778 14.9982 4.21233C14.8635 4.34686 14.7043 4.41413 14.5203 4.41413H10.4419C10.2579 4.41413 10.0986 4.34686 9.96403 4.21233C9.8295 4.0778 9.76223 3.9186 9.76223 3.73442H7.98867C7.66995 3.73442 7.38855 3.83356 7.14432 4.03183C6.89992 4.22995 6.7388 4.48475 6.66096 4.79642Z" fill="#343434"/>
</g>
<defs>
<clipPath id="clip0_1309_5796">
<rect width="23.3906" height="22.4219" fill="white" transform="translate(0.785156)"/>
</clipPath>
</defs>
</svg>
