<svg width="24" height="25" viewBox="0 0 24 25" fill="none" xmlns="http://www.w3.org/2000/svg">
<path d="M21 4.81812C21.5304 4.81812 22.0391 5.02883 22.4142 5.4039C22.7893 5.77897 23 6.28768 23 6.81812V17.8181H21C21 18.6138 20.6839 19.3768 20.1213 19.9394C19.5587 20.502 18.7956 20.8181 18 20.8181C17.2044 20.8181 16.4413 20.502 15.8787 19.9394C15.3161 19.3768 15 18.6138 15 17.8181H9C9 18.6138 8.68393 19.3768 8.12132 19.9394C7.55871 20.502 6.79565 20.8181 6 20.8181C5.20435 20.8181 4.44129 20.502 3.87868 19.9394C3.31607 19.3768 3 18.6138 3 17.8181H1V12.8181L4 8.81812H7V4.81812M14 6.81812L10 10.8181L14 14.8181V11.8181H20V9.81812H14M7 10.3181H4.5L2.53 12.8181H7M18 16.3181C17.6022 16.3181 17.2206 16.4762 16.9393 16.7575C16.658 17.0388 16.5 17.4203 16.5 17.8181C16.5 18.2159 16.658 18.5975 16.9393 18.8788C17.2206 19.1601 17.6022 19.3181 18 19.3181C18.3978 19.3181 18.7794 19.1601 19.0607 18.8788C19.342 18.5975 19.5 18.2159 19.5 17.8181C19.5 17.4203 19.342 17.0388 19.0607 16.7575C18.7794 16.4762 18.3978 16.3181 18 16.3181ZM6 16.3181C5.60217 16.3181 5.22065 16.4762 4.93934 16.7575C4.65804 17.0388 4.5 17.4203 4.5 17.8181C4.5 18.2159 4.65804 18.5975 4.93934 18.8788C5.22065 19.1601 5.60217 19.3181 6 19.3181C6.39783 19.3181 6.77935 19.1601 7.06066 18.8788C7.34196 18.5975 7.5 18.2159 7.5 17.8181C7.5 17.4203 7.34196 17.0388 7.06066 16.7575C6.77935 16.4762 6.39783 16.3181 6 16.3181Z" fill="#EB0028"/>
</svg>
