<svg width="31" height="31" viewBox="0 0 31 31" fill="none" xmlns="http://www.w3.org/2000/svg">
<path d="M21.6997 2.07073C20.2918 2.02618 18.9106 2.46242 17.7837 3.30763C16.6567 4.15283 15.8512 5.35661 15.4997 6.72073C15.1483 5.35661 14.3428 4.15283 13.2158 3.30763C12.0889 2.46242 10.7077 2.02618 9.29974 2.07073C5.72027 1.95706 4.61874 5.7804 5.82361 8.2666H3.09974C2.82568 8.2666 2.56285 8.37547 2.36906 8.56925C2.17527 8.76304 2.06641 9.02587 2.06641 9.29993V11.3666C2.06641 11.6407 2.17527 11.9035 2.36906 12.0973C2.56285 12.2911 2.82568 12.3999 3.09974 12.3999H27.8997C28.1738 12.3999 28.4366 12.2911 28.6304 12.0973C28.8242 11.9035 28.9331 11.6407 28.9331 11.3666V9.29993C28.9331 9.02587 28.8242 8.76304 28.6304 8.56925C28.4366 8.37547 28.1738 8.2666 27.8997 8.2666H25.2007C26.4531 5.8176 25.4032 2.06866 21.7824 2.06866H21.6997V2.07073ZM22.0779 8.2666H17.5664C17.5675 7.17108 18.0035 6.12082 18.7785 5.34656C19.5535 4.5723 20.6042 4.1374 21.6997 4.1374C24.1281 4.1374 24.5579 8.0062 22.0779 8.2666ZM13.4331 8.2666H8.86987C6.73087 8.0248 6.60481 4.35233 8.95254 4.1374C9.06803 4.12682 9.18425 4.12682 9.29974 4.1374C10.3953 4.1374 11.446 4.5723 12.221 5.34656C12.996 6.12082 13.432 7.17108 13.4331 8.2666ZM4.13307 14.4687V23.7687C4.13307 24.5908 4.45968 25.3793 5.04104 25.9607C5.6224 26.5421 6.4109 26.8687 7.23307 26.8687H13.4331V14.4687H4.13307ZM17.5664 14.4687V26.8687H23.7664C24.5886 26.8687 25.3771 26.5421 25.9584 25.9607C26.5398 25.3793 26.8664 24.5908 26.8664 23.7687V14.4687H17.5664Z" fill="white"/>
</svg>
