<svg width="22" height="16" viewBox="0 0 22 16" fill="none" xmlns="http://www.w3.org/2000/svg">
<path d="M20 0.318115H2C1.60218 0.318115 1.22064 0.47615 0.93934 0.757455C0.658035 1.03876 0.5 1.42029 0.5 1.81812V13.8087C0.5 14.2066 0.658035 14.5881 0.93934 14.8694C1.22064 15.1507 1.60218 15.3087 2 15.3087H20C20.3978 15.3087 20.7794 15.1507 21.0607 14.8694C21.342 14.5881 21.5 14.2066 21.5 13.8087V1.81812C21.5 1.42029 21.342 1.03876 21.0607 0.757455C20.7794 0.47615 20.3978 0.318115 20 0.318115ZM11.75 12.3181H10.25C10.0511 12.3181 9.86032 12.2391 9.71967 12.0984C9.57902 11.9578 9.5 11.767 9.5 11.5681C9.5 11.3692 9.57902 11.1784 9.71967 11.0378C9.86032 10.8971 10.0511 10.8181 10.25 10.8181H11.75C11.9489 10.8181 12.1397 10.8971 12.2803 11.0378C12.421 11.1784 12.5 11.3692 12.5 11.5681C12.5 11.767 12.421 11.9578 12.2803 12.0984C12.1397 12.2391 11.9489 12.3181 11.75 12.3181ZM17.75 12.3181H14.75C14.5511 12.3181 14.3603 12.2391 14.2197 12.0984C14.079 11.9578 14 11.767 14 11.5681C14 11.3692 14.079 11.1784 14.2197 11.0378C14.3603 10.8971 14.5511 10.8181 14.75 10.8181H17.75C17.9489 10.8181 18.1397 10.8971 18.2803 11.0378C18.421 11.1784 18.5 11.3692 18.5 11.5681C18.5 11.767 18.421 11.9578 18.2803 12.0984C18.1397 12.2391 17.9489 12.3181 17.75 12.3181ZM2 4.15249V1.81812H20V4.15249H2Z" fill="#EB0028"/>
</svg>
