<svg width="32" height="32" viewBox="0 0 32 32" fill="none" xmlns="http://www.w3.org/2000/svg">
<path d="M16.0007 2.66675C10.4007 2.66675 5.33398 6.96008 5.33398 13.6001C5.33398 17.8401 8.60065 22.8267 15.1207 28.5734C15.6273 29.0134 16.3873 29.0134 16.894 28.5734C23.4007 22.8267 26.6673 17.8401 26.6673 13.6001C26.6673 6.96008 21.6007 2.66675 16.0007 2.66675ZM16.0007 16.0001C14.534 16.0001 13.334 14.8001 13.334 13.3334C13.334 11.8667 14.534 10.6667 16.0007 10.6667C17.4673 10.6667 18.6673 11.8667 18.6673 13.3334C18.6673 14.8001 17.4673 16.0001 16.0007 16.0001Z" fill="white"/>
</svg>
