<svg width="23" height="35" viewBox="0 0 23 35" fill="none" xmlns="http://www.w3.org/2000/svg">
<path d="M18.4375 0.25H3.5625C1.76953 0.25 0.375 1.71094 0.375 3.4375V31.0625C0.375 32.8555 1.76953 34.25 3.5625 34.25H18.4375C20.1641 34.25 21.625 32.8555 21.625 31.0625V3.4375C21.625 1.71094 20.1641 0.25 18.4375 0.25ZM11 32.125C9.80469 32.125 8.875 31.1953 8.875 30C8.875 28.8711 9.80469 27.875 11 27.875C12.1289 27.875 13.125 28.8711 13.125 30C13.125 31.1953 12.1289 32.125 11 32.125ZM18.4375 24.9531C18.4375 25.418 18.0391 25.75 17.6406 25.75H4.35938C3.89453 25.75 3.5625 25.418 3.5625 24.9531V4.23438C3.5625 3.83594 3.89453 3.4375 4.35938 3.4375H17.6406C18.0391 3.4375 18.4375 3.83594 18.4375 4.23438V24.9531Z" fill="white"/>
</svg>
