<svg width="32" height="32" viewBox="0 0 32 32" fill="none" xmlns="http://www.w3.org/2000/svg">
<path d="M16.0007 22.6666C16.7079 22.6666 17.3862 22.3856 17.8863 21.8855C18.3864 21.3854 18.6673 20.7072 18.6673 19.9999C18.6673 19.2927 18.3864 18.6144 17.8863 18.1143C17.3862 17.6142 16.7079 17.3333 16.0007 17.3333C15.2934 17.3333 14.6151 17.6142 14.115 18.1143C13.6149 18.6144 13.334 19.2927 13.334 19.9999C13.334 20.7072 13.6149 21.3854 14.115 21.8855C14.6151 22.3856 15.2934 22.6666 16.0007 22.6666ZM24.0007 10.6666C24.7079 10.6666 25.3862 10.9475 25.8863 11.4476C26.3864 11.9477 26.6673 12.626 26.6673 13.3333V26.6666C26.6673 27.3738 26.3864 28.0521 25.8863 28.5522C25.3862 29.0523 24.7079 29.3333 24.0007 29.3333H8.00065C7.29341 29.3333 6.61513 29.0523 6.11503 28.5522C5.61494 28.0521 5.33398 27.3738 5.33398 26.6666V13.3333C5.33398 12.626 5.61494 11.9477 6.11503 11.4476C6.61513 10.9475 7.29341 10.6666 8.00065 10.6666H9.33398V7.99992C9.33398 6.23181 10.0364 4.53612 11.2866 3.28587C12.5368 2.03563 14.2325 1.33325 16.0007 1.33325C16.8761 1.33325 17.743 1.50569 18.5519 1.84072C19.3607 2.17575 20.0956 2.66682 20.7147 3.28587C21.3338 3.90493 21.8248 4.63986 22.1598 5.4487C22.4949 6.25753 22.6673 7.12444 22.6673 7.99992V10.6666H24.0007ZM16.0007 3.99992C14.9398 3.99992 13.9224 4.42135 13.1722 5.17149C12.4221 5.92164 12.0007 6.93905 12.0007 7.99992V10.6666H20.0007V7.99992C20.0007 6.93905 19.5792 5.92164 18.8291 5.17149C18.0789 4.42135 17.0615 3.99992 16.0007 3.99992Z" fill="white"/>
</svg>
