<svg width="16" height="9" viewBox="0 0 16 9" fill="none" xmlns="http://www.w3.org/2000/svg">
<path d="M1.17422 6.84336L7.47422 0.52461C7.54922 0.44961 7.63047 0.39661 7.71797 0.36561C7.80547 0.33411 7.89922 0.31836 7.99922 0.31836C8.09922 0.31836 8.19297 0.33411 8.28047 0.36561C8.36797 0.39661 8.44922 0.44961 8.52422 0.52461L14.843 6.84336C15.018 7.01836 15.1055 7.23711 15.1055 7.49961C15.1055 7.76211 15.0117 7.98711 14.8242 8.17461C14.6367 8.36211 14.418 8.45586 14.168 8.45586C13.918 8.45586 13.6992 8.36211 13.5117 8.17461L7.99922 2.66211L2.48672 8.17461C2.31172 8.34961 2.09622 8.43711 1.84022 8.43711C1.58372 8.43711 1.36172 8.34336 1.17422 8.15586C0.986719 7.96836 0.892969 7.74961 0.892969 7.49961C0.892969 7.24961 0.986719 7.03086 1.17422 6.84336Z" fill="#FEFEFE"/>
</svg>
